<?xml version="1.0" encoding="UTF-8"?>
<svg width="32px" height="32px" viewBox="0 0 32 32" version="1.1" xmlns="http://www.w3.org/2000/svg" xmlns:xlink="http://www.w3.org/1999/xlink">
    <!-- Generator: Sketch 49.3 (51167) - http://www.bohemiancoding.com/sketch -->
    <title>chat-icon-white</title>
    <desc>Created with Sketch.</desc>
    <defs>
        <path d="M14,3 C7.925,3 3,7.477 3,13 C3,15.836604 4.3081273,18.387771 6.3964844,20.205078 C6.0969391,21.186048 5.4721018,22.161699 4.3242188,23.03125 C4.32356953,23.0319028 4.32291846,23.0325538 4.3222656,23.033203 C4.12843663,23.1069174 4.00022694,23.2926273 4,23.5 C4,23.7761424 4.22385763,24 4.5,24 C4.53416566,23.9995741 4.56819768,23.9956473 4.6015625,23.988281 C6.5416307,23.982628 8.1969423,23.153925 9.5136719,22.115234 C10.1385204,22.369393 10.7907693,22.578929 11.470703,22.724609 C11.166703,21.864609 11,20.949 11,20 C11,18.562 11.385687,17.207 12.054688,16 L10,16 C9.448,16 9,15.552 9,15 C9,14.448 9.448,14 10,14 L13.568359,14 C14.380359,13.186 15.349453,12.505 16.439453,12 L10,12 C9.448,12 9,11.552 9,11 C9,10.448 9.448,10 10,10 L18,10 C18.552,10 19,10.448 19,11 C19,11.067 18.974891,11.126453 18.962891,11.189453 C19.620891,11.066453 20.302,11 21,11 C22.382,11 23.699437,11.253891 24.898438,11.712891 C24.202437,6.7988906 19.594,3 14,3 Z M21,13 C16.582,13 13,16.134 13,20 C13,23.866 16.582,27 21,27 C22.056083,27 23.061339,26.815582 23.984375,26.490234 C25.210733,27.346924 26.694866,27.982344 28.394531,27.988281 C28.4291721,27.9959176 28.4645275,27.999846 28.5,28 C28.7761424,28 29,27.7761424 29,27.5 C28.9996727,27.2904242 28.8686798,27.1032915 28.671875,27.03125 C27.756686,26.336428 27.170113,25.571619 26.818359,24.792969 C28.167112,23.539939 29,21.857118 29,20 C29,16.134 25.418,13 21,13 Z M18,17 L24,17 C24.552,17 25,17.448 25,18 C25,18.552 24.552,19 24,19 L18,19 C17.448,19 17,18.552 17,18 C17,17.448 17.448,17 18,17 Z M18,21 L24,21 C24.552,21 25,21.448 25,22 C25,22.552 24.552,23 24,23 L18,23 C17.448,23 17,22.552 17,22 C17,21.448 17.448,21 18,21 Z" id="path-1"></path>
    </defs>
    <g id="chat-icon" stroke="none" stroke-width="1" fill="none" fill-rule="evenodd">
        <mask id="mask-2" fill="white">
            <use xlink:href="#path-1"></use>
        </mask>
        <use id="Mask" fill="#FFFFFF" fill-rule="nonzero" xlink:href="#path-1"></use>
    </g>
</svg>