<svg width="28" height="28" viewBox="0 0 36 36" fill="none" xmlns="http://www.w3.org/2000/svg">
<path d="M34.06 26.407L30.564 22.911C29.9313 22.2786 29.1388 21.8298 28.2711 21.6125C27.4033 21.3952 26.4929 21.4174 25.6368 21.6769C24.7807 21.9364 24.0111 22.4234 23.4101 23.086C22.809 23.7485 22.3991 24.5618 22.224 25.439C16.459 24.361 10.852 18.777 10.503 13.786C11.4831 13.6057 12.385 13.1314 13.089 12.426C14.0158 11.499 14.5365 10.2419 14.5365 8.931C14.5365 7.62015 14.0158 6.36298 13.089 5.436L9.59398 1.94C8.66701 1.01315 7.40984 0.492462 6.09898 0.492462C4.78813 0.492462 3.53096 1.01315 2.60398 1.94C-7.88202 12.426 23.574 43.882 34.06 33.396C34.9863 32.4689 35.5066 31.212 35.5066 29.9015C35.5066 28.591 34.9863 27.3341 34.06 26.407V26.407Z" fill="white"/>
</svg>
