<svg width="16" height="16" viewBox="0 0 107 108" fill="none" xmlns="http://www.w3.org/2000/svg">
<path d="M8.91666 27C8.91666 24.6131 9.8561 22.3239 11.5283 20.636C13.2005 18.9482 15.4685 18 17.8333 18H89.1667C91.5315 18 93.7995 18.9482 95.4717 20.636C97.1439 22.3239 98.0833 24.6131 98.0833 27V81C98.0833 83.3869 97.1439 85.6761 95.4717 87.364C93.7995 89.0518 91.5315 90 89.1667 90H17.8333C15.4685 90 13.2005 89.0518 11.5283 87.364C9.8561 85.6761 8.91666 83.3869 8.91666 81V27ZM24.6055 27L53.5 52.5195L82.3945 27H24.61H24.6055ZM89.1667 32.9805L56.438 61.8885C55.625 62.6075 54.5809 63.0039 53.5 63.0039C52.4191 63.0039 51.375 62.6075 50.562 61.8885L17.8333 32.9805V81H89.1667V32.9805Z" fill="#B0B9CB"/>
</svg>
