<svg width="16" height="16" viewBox="0 0 108 108" fill="none" xmlns="http://www.w3.org/2000/svg">
<path fill-rule="evenodd" clip-rule="evenodd" d="M72 63C77.7981 63.0003 83.3722 65.2389 87.56 69.249C91.7478 73.259 94.2259 78.7309 94.4775 84.5235L94.5 85.5V94.5C94.4987 95.647 94.0595 96.7501 93.2722 97.5842C92.4848 98.4182 91.4087 98.9201 90.2637 98.9873C89.1187 99.0545 87.9913 98.682 87.1118 97.9458C86.2322 97.2097 85.667 96.1654 85.5315 95.0265L85.5 94.5V85.5C85.5002 82.0566 84.1845 78.7432 81.8222 76.2378C79.4599 73.7325 76.2295 72.2245 72.792 72.0225L72 72H36C32.5566 71.9998 29.2432 73.3155 26.7378 75.6778C24.2325 78.0401 22.7245 81.2705 22.5225 84.708L22.5 85.5V94.5C22.4987 95.647 22.0595 96.7501 21.2722 97.5842C20.4848 98.4182 19.4087 98.9201 18.2637 98.9873C17.1187 99.0545 15.9913 98.682 15.1118 97.9458C14.2322 97.2097 13.667 96.1654 13.5315 95.0265L13.5 94.5V85.5C13.5003 79.7019 15.7389 74.1278 19.749 69.94C23.759 65.7522 29.2309 63.2741 35.0235 63.0225L36 63H72ZM54 9C59.9674 9 65.6903 11.3705 69.9099 15.5901C74.1295 19.8097 76.5 25.5326 76.5 31.5C76.5 37.4674 74.1295 43.1903 69.9099 47.4099C65.6903 51.6295 59.9674 54 54 54C48.0326 54 42.3097 51.6295 38.0901 47.4099C33.8705 43.1903 31.5 37.4674 31.5 31.5C31.5 25.5326 33.8705 19.8097 38.0901 15.5901C42.3097 11.3705 48.0326 9 54 9V9ZM54 18C52.2272 18 50.4717 18.3492 48.8338 19.0276C47.1959 19.7061 45.7076 20.7005 44.4541 21.9541C43.2005 23.2076 42.2061 24.6959 41.5276 26.3338C40.8492 27.9717 40.5 29.7272 40.5 31.5C40.5 33.2728 40.8492 35.0283 41.5276 36.6662C42.2061 38.3041 43.2005 39.7924 44.4541 41.0459C45.7076 42.2995 47.1959 43.2939 48.8338 43.9724C50.4717 44.6508 52.2272 45 54 45C57.5804 45 61.0142 43.5777 63.5459 41.0459C66.0777 38.5142 67.5 35.0804 67.5 31.5C67.5 27.9196 66.0777 24.4858 63.5459 21.9541C61.0142 19.4223 57.5804 18 54 18Z" fill="#B0B9CB"/>
</svg>
